<svg xmlns="http://www.w3.org/2000/svg" viewBox="0 0 44 41" width="64" height="64" fill="none" aria-hidden="true" role="img">
  <path
    d="M28.2 6.8c-2.4-2.8-6.8-1.9-7.7 1.6-.9-2.5-5.3-3.4-7.7-1.6-2.9 3.4-1.5 9.1 3.2 14.1l4.5 4.2 4.5-4.2c4.7-4.9 6.1-10.7 3.2-14.1z"
    stroke="#F5F0EB"
    stroke-width="4"
    stroke-linecap="round"
    stroke-linejoin="round"
  />
  <path
    d="M17.8 13.2c-1.2-1.3-3.2-.9-3.7.7-.5-1.6-2.5-2-3.7-.7-1.3 1.5-.7 4.2 1.5 6.5l2.2 2.1 2.2-2.1c2.2-2.3 2.8-5 1.5-6.5z"
    stroke="#C0392B"
    stroke-width="3.2"
    stroke-linecap="round"
    stroke-linejoin="round"
  />
</svg>
